<svg width="24" height="24" viewBox="0 0 24 24" fill="none" xmlns="http://www.w3.org/2000/svg">
<path d="M8.25 18.75C8.25 19.5784 7.57843 20.25 6.75 20.25C5.92157 20.25 5.25 19.5784 5.25 18.75C5.25 17.9216 5.92157 17.25 6.75 17.25C7.57843 17.25 8.25 17.9216 8.25 18.75ZM20.25 18.75C20.25 19.5784 19.5784 20.25 18.75 20.25C17.9216 20.25 17.25 19.5784 17.25 18.75C17.25 17.9216 17.9216 17.25 18.75 17.25C19.5784 17.25 20.25 17.9216 20.25 18.75ZM8.25 18.75H17.25M8.25 18.75H6.75M17.25 18.75H18.75M6.75 17.25V15.75H3.75V12.75H6.75V9.75H15.75V12.75H21.75V15.75H18.75V17.25M6.75 17.25H3.75M18.75 17.25H21.75" stroke="currentColor" stroke-width="1.5" stroke-linecap="round" stroke-linejoin="round"/>
</svg>

